<svg width="29" height="36" viewBox="0 0 29 36" fill="none" xmlns="http://www.w3.org/2000/svg">
<path fill-rule="evenodd" clip-rule="evenodd" d="M14.0286 6.95912V6.30528C14.0286 5.36725 13.6569 4.46763 12.9952 3.80434C12.3335 3.14106 11.4361 2.76842 10.5003 2.76842C9.56455 2.76842 8.66711 3.14106 8.00543 3.80434C7.34374 4.46763 6.97201 5.36725 6.97201 6.30528V6.95912H14.0286ZM5.20787 6.95912V6.30528C5.20787 4.89823 5.76546 3.54882 6.75799 2.55388C7.75051 1.55895 9.09667 1 10.5003 1C11.904 1 13.2501 1.55895 14.2426 2.55388C15.2351 3.54882 15.7927 4.89823 15.7927 6.30528V6.95912H17.636C18.3184 6.95847 18.9746 7.22211 19.4678 7.69498C19.9609 8.16785 20.2526 8.8134 20.2823 9.4968L20.9967 24.7407C21.0146 25.1 20.9595 25.4593 20.8346 25.7965C20.7097 26.1338 20.5176 26.4421 20.27 26.7027C20.0225 26.9632 19.7247 27.1706 19.3946 27.3121C19.0647 27.4536 18.7094 27.5264 18.3505 27.5259H2.64954C2.2906 27.5264 1.93534 27.4536 1.60535 27.3121C1.27535 27.1706 0.977529 26.9632 0.729994 26.7027C0.482458 26.4421 0.290385 26.1338 0.165458 25.7965C0.0405311 25.4593 -0.014637 25.1 0.00331031 24.7407L0.717792 9.4968C0.747358 8.8134 1.03916 8.16785 1.53226 7.69498C2.02535 7.22211 2.68161 6.95847 3.36402 6.95912H5.20787ZM3.36402 8.73638C3.13007 8.73638 2.90572 8.82954 2.74029 8.99537C2.57488 9.16119 2.48195 9.38609 2.48195 9.62059L1.76746 24.8291C1.76148 24.9489 1.77987 25.0686 1.82151 25.181C1.86315 25.2935 1.92718 25.3962 2.00969 25.4831C2.0922 25.5699 2.19147 25.639 2.30147 25.6862C2.41148 25.7334 2.52989 25.7576 2.64954 25.7575H18.3505C18.4702 25.7576 18.5886 25.7334 18.6985 25.6862C18.8085 25.639 18.9079 25.5699 18.9903 25.4831C19.0729 25.3962 19.1369 25.2935 19.1785 25.181C19.2201 25.0686 19.2386 24.9489 19.2326 24.8291L18.518 9.58522C18.518 9.35072 18.4252 9.12582 18.2597 8.96C18.0943 8.79417 17.8699 8.70101 17.636 8.70101L3.36402 8.73638ZM10.4995 15.8722C9.27538 15.8737 8.08866 15.4498 7.14136 14.6727C6.19406 13.8957 5.54476 12.8134 5.30402 11.6104C5.28484 11.4836 5.29337 11.3542 5.32901 11.2312C5.36467 11.1081 5.42659 10.9942 5.5105 10.8975C5.5944 10.8008 5.69828 10.7235 5.81493 10.671C5.93159 10.6185 6.05824 10.5921 6.1861 10.5935C6.39623 10.5905 6.60056 10.6627 6.76228 10.7973C6.924 10.9318 7.03247 11.1198 7.06818 11.3274C7.2343 12.1223 7.66823 12.8355 8.29707 13.3476C8.92592 13.8596 9.71136 14.139 10.5214 14.139C11.3316 14.139 12.1171 13.8596 12.7459 13.3476C13.3748 12.8355 13.8087 12.1223 13.9748 11.3274C14.0105 11.1198 14.119 10.9318 14.2807 10.7973C14.4425 10.6627 14.6467 10.5905 14.857 10.5935C14.9847 10.5921 15.1114 10.6185 15.2281 10.671C15.3447 10.7235 15.4486 10.8008 15.5325 10.8975C15.6164 10.9942 15.6784 11.1081 15.714 11.2312C15.7497 11.3542 15.7582 11.4836 15.739 11.6104C15.4968 12.8209 14.841 13.9089 13.8847 14.6869C12.9282 15.4648 11.731 15.8841 10.4995 15.8722Z" fill="#4B2E25"/>
<rect x="8" y="14.1289" width="21" height="21" rx="10.5" fill="#49682F"/>
<path d="M18.8438 23.6562C19.6719 23.6562 20.3301 23.8887 20.8184 24.3535C21.3105 24.8184 21.5566 25.4551 21.5566 26.2637C21.5566 27.2207 21.2617 27.957 20.6719 28.4727C20.082 28.9883 19.2383 29.2461 18.1406 29.2461C17.1875 29.2461 16.418 29.0918 15.832 28.7832V27.2188C16.1406 27.3828 16.5 27.5176 16.9102 27.623C17.3203 27.7246 17.709 27.7754 18.0762 27.7754C19.1816 27.7754 19.7344 27.3223 19.7344 26.416C19.7344 25.5527 19.1621 25.1211 18.0176 25.1211C17.8105 25.1211 17.582 25.1426 17.332 25.1855C17.082 25.2246 16.8789 25.2676 16.7227 25.3145L16.002 24.9277L16.3242 20.5625H20.9707V22.0977H17.9121L17.7539 23.7793L17.959 23.7383C18.1973 23.6836 18.4922 23.6562 18.8438 23.6562Z" fill="#F9F8F2"/>
</svg>
