<svg width="18" height="17" viewBox="0 0 18 17" fill="none" xmlns="http://www.w3.org/2000/svg">
<path d="M16.6034 12.2056L14.2971 9.9948C13.4734 9.20522 12.0731 9.52108 11.7436 10.5475C11.4965 11.2581 10.6728 11.6529 9.93151 11.495C8.28412 11.1002 6.06014 9.04731 5.6483 7.38919C5.40119 6.67855 5.89541 5.88897 6.63673 5.65213C7.70753 5.3363 8.03701 3.99402 7.21332 3.20444L4.90697 0.993629C4.24802 0.440926 3.25959 0.440926 2.683 0.993629L1.11798 2.49382C-0.447035 4.07298 1.28272 8.25773 5.15408 11.9687C9.02544 15.6797 13.391 17.4168 15.0384 15.8377L16.6034 14.3375C17.18 13.7058 17.18 12.7583 16.6034 12.2056Z" fill="#49682F"/>
</svg>
