<svg width="22" height="24" viewBox="0 0 22 24" fill="none" xmlns="http://www.w3.org/2000/svg">
<path fill-rule="evenodd" clip-rule="evenodd" d="M17.8642 6.36533C17.8642 9.884 14.9988 12.74 11.4895 12.74V12.7493C7.97084 12.7493 5.11484 9.89333 5.11484 6.37467C5.11484 2.856 7.97084 0 11.4895 0C15.0082 0 17.8642 2.84667 17.8642 6.36533ZM16.1095 6.36533C16.1095 3.81733 14.0375 1.74533 11.4895 1.74533C8.94151 1.74533 6.86951 3.81733 6.86951 6.36533C6.86951 8.91333 8.94151 10.9853 11.4895 10.9853C14.0375 10.9853 16.1095 8.91333 16.1095 6.36533ZM12.8618 13.3465C15.2978 13.3465 17.5938 14.3172 19.3205 16.0718H19.3111C21.0285 17.8172 21.9805 20.1225 21.9805 22.5585C21.9805 23.0438 21.5885 23.4358 21.1031 23.4358H1.8578C1.37247 23.4358 0.980469 23.0438 0.980469 22.5585C0.980469 20.1225 1.93247 17.8172 3.6498 16.0718C5.3858 14.3172 7.67247 13.3465 10.1085 13.3465H12.8618ZM12.8711 15.1012H10.1178C6.34714 15.1012 3.2298 17.9852 2.80047 21.6905H20.1885C19.7591 17.9852 16.6418 15.1012 12.8711 15.1012Z" fill="#4B2E25"/>
</svg>
